<mxfile host="app.diagrams.net" modified="2022-12-30T22:08:57.789Z" agent="5.0 (Windows NT 10.0; Win64; x64) AppleWebKit/537.36 (KHTML, like Gecko) Chrome/108.0.0.0 Safari/537.36" version="20.6.0" etag="-xzDapmVsf7M1Hmfe2K4" type="github">
  <diagram id="yqqX98Np4aD_qBFHjlHB" name="Stránka-1">
    <mxGraphModel dx="791" dy="378" grid="1" gridSize="10" guides="1" tooltips="1" connect="1" arrows="1" fold="1" page="1" pageScale="1" pageWidth="827" pageHeight="1169" math="0" shadow="0">
      <root>
        <mxCell id="0" />
        <mxCell id="1" parent="0" />
        <mxCell id="sryESrAk-QUB-Bo82VV7-1" value="" style="swimlane;startSize=0;" vertex="1" parent="1">
          <mxGeometry x="360" y="70" width="200" height="360" as="geometry" />
        </mxCell>
        <mxCell id="sryESrAk-QUB-Bo82VV7-2" value="Přidat město" style="ellipse;whiteSpace=wrap;html=1;" vertex="1" parent="sryESrAk-QUB-Bo82VV7-1">
          <mxGeometry x="30" y="30" width="140" height="70" as="geometry" />
        </mxCell>
        <mxCell id="sryESrAk-QUB-Bo82VV7-3" value="Zvolit start" style="ellipse;whiteSpace=wrap;html=1;" vertex="1" parent="sryESrAk-QUB-Bo82VV7-1">
          <mxGeometry x="30" y="110" width="140" height="70" as="geometry" />
        </mxCell>
        <mxCell id="sryESrAk-QUB-Bo82VV7-4" value="Zvolit konec" style="ellipse;whiteSpace=wrap;html=1;" vertex="1" parent="sryESrAk-QUB-Bo82VV7-1">
          <mxGeometry x="30" y="190" width="140" height="70" as="geometry" />
        </mxCell>
        <mxCell id="sryESrAk-QUB-Bo82VV7-5" value="Zobrazit výsledek" style="ellipse;whiteSpace=wrap;html=1;" vertex="1" parent="sryESrAk-QUB-Bo82VV7-1">
          <mxGeometry x="30" y="270" width="140" height="70" as="geometry" />
        </mxCell>
        <mxCell id="sryESrAk-QUB-Bo82VV7-7" value="Vyhledání nejkratší trasy" style="text;html=1;align=center;verticalAlign=middle;resizable=0;points=[];autosize=1;strokeColor=none;fillColor=none;" vertex="1" parent="sryESrAk-QUB-Bo82VV7-1">
          <mxGeometry x="10" y="-5" width="150" height="30" as="geometry" />
        </mxCell>
        <mxCell id="sryESrAk-QUB-Bo82VV7-9" value="" style="endArrow=none;html=1;rounded=0;entryX=0;entryY=0.546;entryDx=0;entryDy=0;entryPerimeter=0;" edge="1" parent="sryESrAk-QUB-Bo82VV7-1">
          <mxGeometry width="50" height="50" relative="1" as="geometry">
            <mxPoint x="-40" y="150" as="sourcePoint" />
            <mxPoint x="30" y="140.00000000000003" as="targetPoint" />
          </mxGeometry>
        </mxCell>
        <mxCell id="sryESrAk-QUB-Bo82VV7-10" value="" style="endArrow=none;html=1;rounded=0;entryX=0;entryY=0.546;entryDx=0;entryDy=0;entryPerimeter=0;" edge="1" parent="sryESrAk-QUB-Bo82VV7-1">
          <mxGeometry width="50" height="50" relative="1" as="geometry">
            <mxPoint x="-40" y="170" as="sourcePoint" />
            <mxPoint x="30" y="230" as="targetPoint" />
          </mxGeometry>
        </mxCell>
        <mxCell id="sryESrAk-QUB-Bo82VV7-6" value="Uživatel" style="shape=umlActor;verticalLabelPosition=bottom;verticalAlign=top;html=1;" vertex="1" parent="1">
          <mxGeometry x="280" y="200" width="30" height="60" as="geometry" />
        </mxCell>
        <mxCell id="sryESrAk-QUB-Bo82VV7-8" value="" style="endArrow=none;html=1;rounded=0;entryX=0;entryY=0.546;entryDx=0;entryDy=0;entryPerimeter=0;" edge="1" parent="1" target="sryESrAk-QUB-Bo82VV7-2">
          <mxGeometry width="50" height="50" relative="1" as="geometry">
            <mxPoint x="320" y="200" as="sourcePoint" />
            <mxPoint x="370" y="230" as="targetPoint" />
          </mxGeometry>
        </mxCell>
        <mxCell id="sryESrAk-QUB-Bo82VV7-11" value="" style="endArrow=none;html=1;rounded=0;entryX=0;entryY=0.45;entryDx=0;entryDy=0;entryPerimeter=0;" edge="1" parent="1" target="sryESrAk-QUB-Bo82VV7-5">
          <mxGeometry width="50" height="50" relative="1" as="geometry">
            <mxPoint x="320" y="260" as="sourcePoint" />
            <mxPoint x="370" y="280" as="targetPoint" />
          </mxGeometry>
        </mxCell>
      </root>
    </mxGraphModel>
  </diagram>
</mxfile>
